# xmcd
#
# Track frame offsets: 
#        150
#        9967
#        22552
#        35040
#        45120
#        58807
#        70875
#        83340
#        94747
#        105960
#        120600
#        140292
#
# Disc length: 2033 seconds
#
# Revision: 2
# Processed by: cddbd v1.5.1PL2 Copyright (c) Steve Scherf et al.
# Submitted via: ExactAudioCopy v0.95b4
#
DISCID=7f07ef0c
DTITLE=Koko Taylor - Koko Taylor
DYEAR=1969
DGENRE=
TTITLE0=Love you like a woman
TTITLE1=I love a lover like you
TTITLE2=Don't mess with the messer
TTITLE3=I don't care who know
TTITLE4=Wang dang doodle
TTITLE5=I'm a little mixed up
TTITLE6=Nitty gritty
TTITLE7=Fire
TTITLE8=Whatever I am, you made me
TTITLE9=Twenty-nine ways
TTITLE10=Insane Asylum
TTITLE11=Yes, it's good for you
EXTD=
EXTT0=
EXTT1=
EXTT2=
EXTT3=
EXTT4=
EXTT5=
EXTT6=
EXTT7=
EXTT8=
EXTT9=
EXTT10=
EXTT11=
PLAYORDER=
